<svg xmlns="http://www.w3.org/2000/svg" width="19.95" height="20.899" viewBox="0 0 19.95 20.899"><defs><style>.a,.b,.c{fill:none;stroke-width:1.5px;}.a{stroke-linejoin:round;}.b{stroke-miterlimit:10;}</style></defs><g transform="translate(1757.75 23906.749)"><g transform="translate(-1536.653 -24153.572)"><path class="a" d="M-201.21,270.211v-1.518a1.115,1.115,0,0,1,1.11-1.12h4.9a1.115,1.115,0,0,1,1.11,1.12v1.518" transform="translate(-13.476 -20)"/></g><rect class="b" width="3" height="5" rx="1" transform="translate(-1749.3 -23898)"/><path class="a" d="M-201.21,274.271v-3.854a2.86,2.86,0,0,1,2.874-2.844h12.694a2.86,2.86,0,0,1,2.874,2.844v3.854" transform="translate(-1555.79 -24170.332)"/><line class="c" x2="8.25" transform="translate(-1757.75 -23895.5)"/><line class="c" x2="8.7" transform="translate(-1746.5 -23895.5)"/><path class="a" d="M-201.21,267.573v3.915a2.882,2.882,0,0,0,2.874,2.889h12.694a2.882,2.882,0,0,0,2.874-2.889v-3.915" transform="translate(-1555.79 -24160.977)"/></g></svg>