<svg xmlns="http://www.w3.org/2000/svg" width="21.609" height="21.589" viewBox="0 0 21.609 21.589"><defs><style>.a{fill:none;stroke-linecap:round;stroke-linejoin:round;stroke-width:1.5px;}.b{fill:#a7abb2;}</style></defs><g transform="translate(208.568 -1454.25)"><g transform="translate(-207.748 1455)"><path class="a" d="M-203,1455v4.786h4.555" transform="translate(203.954 -1454.764)"/><path class="a" d="M-207.748,1466.049a10.045,10.045,0,0,0,9.994,9.04,10.045,10.045,0,0,0,10.045-10.045A10.045,10.045,0,0,0-197.754,1455a10.032,10.032,0,0,0-8.69,5.022" transform="translate(207.748 -1455)"/></g><path class="b" d="M12.658,7.329a.829.829,0,0,0-1.658,0V13.41a.826.826,0,0,0,.418.72l3.87,2.211A.829.829,0,0,0,16.11,14.9l-3.452-1.972Z" transform="translate(-210.192 1452.987)"/></g></svg>