<svg xmlns="http://www.w3.org/2000/svg" xmlns:xlink="http://www.w3.org/1999/xlink" width="32" height="32" viewBox="0 0 32 32"><defs><style>.a,.c{fill:#005597;}.a{stroke:#6b7786;}.b{clip-path:url(#a);}</style><clipPath id="a"><rect class="a" width="32" height="32"/></clipPath></defs><g class="b"><g transform="translate(0.016 0)"><g transform="translate(0)"><path class="c" d="M38.361,16.852c-.6-1.014-1.966-1.3-2.96-1.449l-.228-.041a38.177,38.177,0,0,1,2.918,4.947c.083-.207.166-.373.207-.5a3.362,3.362,0,0,0,.062-2.96" transform="translate(-11.25 -6.379)"/><path class="c" d="M24.722,32.454c.538,1.407,1.1,2.111,1.78,2.256.849.166,1.966-.517,3.622-2.256A14.638,14.638,0,0,0,31.2,31.191a66.673,66.673,0,0,0-6.768.559c.062.124.29.7.29.7" transform="translate(-9.554 -8.878)"/><path class="c" d="M18.4,28.531c.373.559,1.428.724,3.415.517a37.413,37.413,0,0,0-2.235-4.74c-1.056,2.008-1.656,3.5-1.18,4.222" transform="translate(-8.577 -7.791)"/><g transform="translate(0 0)"><path class="c" d="M20.278,22.173a34.307,34.307,0,0,1,2.794,5.319c.248-.041.5-.062.745-.1a46.087,46.087,0,0,1,8.031-.455,54.86,54.86,0,0,0,3.539-5.858,34.934,34.934,0,0,0-3.85-5.837,41.289,41.289,0,0,0-7.638.1,30.938,30.938,0,0,1-1.821,3.664q-1.025,1.77-1.8,3.167" transform="translate(-8.899 -6.339)"/><path class="c" d="M34.169,9.372A16.08,16.08,0,0,0,13.057,8.006a16.219,16.219,0,0,0-5.609,8.279A45.917,45.917,0,0,1,20.26,12.6c.331-1.056.58-2.049.787-2.918.435-1.821.745-3.125,1.594-3.374.911-.248,2.36.745,4.988,3.436h0l2.008,2.36a24.259,24.259,0,0,1,3.043.393l.1.021c.828.166,2.587.517,3.312,1.8a3.27,3.27,0,0,1,0,2.794c-.455,1.283-.952,2.422-1.47,3.539a30.489,30.489,0,0,1,1.138,3.353,1.068,1.068,0,0,0,.041.228.7.7,0,0,1-.186.538l-.083.1-.041-.124a28.761,28.761,0,0,0-1.2-3.395,28.776,28.776,0,0,1-2.4,3.995,28.489,28.489,0,0,1,5.9.994,16.222,16.222,0,0,0,1.056-5.692A15.95,15.95,0,0,0,34.169,9.372" transform="translate(-6.873 -4.694)"/><path class="c" d="M31.1,12.88c-1.9-2.256-3-3.125-3.767-3-.787.124-1.3,1.345-2.07,3.208l-.021.062A44.528,44.528,0,0,1,31.1,12.88" transform="translate(-9.683 -5.512)"/><path class="c" d="M30.563,28.738c-.931,1.159-2.008,2.36-3.374,3.767-1.987,2.049-3.084,2.981-3.974,2.753-.621-.166-1.076-.869-1.47-2.339-.352-1.221-.7-2.4-1.1-3.5l-1.449.207c-3.27.476-5.092.207-5.733-.787-.911-1.449.787-4.264,3.125-7.8-.517-.766-1.076-1.49-1.656-2.215a1.138,1.138,0,0,1-.145-.186l-.083-.1.124-.021a.766.766,0,0,1,.559.186c.517.559,1.035,1.159,1.532,1.8l.228-.352,1.056-1.594a17.334,17.334,0,0,0,1.49-2.9C13.715,16.568,9.43,18.41,7.609,20.77a3.825,3.825,0,0,0-.787,3.291,16.27,16.27,0,0,0,4.636,9.728,15.754,15.754,0,0,0,11.281,4.636,16.022,16.022,0,0,0,12.15-5.589c.724-.973.952-1.8.642-2.442-.455-.973-2.132-1.532-4.968-1.656" transform="translate(-6.765 -6.426)"/></g></g></g></g></svg>